<?xml version="1.0" encoding="UTF-8" standalone="yes"?>
<svg xmlns="http://www.w3.org/2000/svg" xmlns:xlink="http://www.w3.org/1999/xlink" width="48pt" height="48pt" viewBox="0 0 48 48" version="1.1" fill="#000000">
  <g id="surface93403">
    <path style=" stroke:none;fill-rule:nonzero;fill:#fff;fill-opacity:1;" d="M 5.054688 41.8125 C 9.707031 37.691406 8 33.601562 8 33.601562 L 19.199219 36.800781 C 19.199219 36.800781 13.339844 42.753906 5.734375 43.183594 Z M 5.054688 41.8125 "/>
    <path style=" stroke:none;fill-rule:nonzero;fill:#fff;fill-opacity:1;" d="M 5.601562 41.601562 C 5.15625 41.601562 4.800781 41.957031 4.800781 42.398438 C 4.800781 42.84375 5.15625 43.199219 5.601562 43.199219 C 6.042969 43.199219 6.398438 42.84375 6.398438 42.398438 C 6.398438 41.957031 6.042969 41.601562 5.601562 41.601562 Z M 24 4.800781 C 12.511719 4.800781 3.199219 12.679688 3.199219 22.398438 C 3.199219 32.121094 12.511719 40 24 40 C 35.488281 40 44.800781 32.121094 44.800781 22.398438 C 44.800781 12.679688 35.488281 4.800781 24 4.800781 Z M 25.601562 32 L 22.398438 32 L 22.398438 20.800781 L 25.601562 20.800781 Z M 24 16.800781 C 22.675781 16.800781 21.601562 15.726562 21.601562 14.398438 C 21.601562 13.074219 22.675781 12 24 12 C 25.324219 12 26.398438 13.074219 26.398438 14.398438 C 26.398438 15.726562 25.324219 16.800781 24 16.800781 Z M 24 16.800781 "/>
  </g>
</svg>
