<?xml version="1.0" encoding="UTF-8" standalone="yes"?>
<svg xmlns="http://www.w3.org/2000/svg" xmlns:xlink="http://www.w3.org/1999/xlink" width="50px" height="50px" viewBox="0 0 50 50" version="1.1" fill="#fff">
  <g id="surface289042">
    <path style=" stroke:none;fill-rule:nonzero;fill:#fff;fill-opacity:1;" d="M 25.003906 13.257812 L 34.199219 7.136719 L 25.367188 2.097656 C 25.136719 1.96875 24.859375 1.96875 24.632812 2.097656 L 15.855469 7.101562 Z M 24.230469 14.648438 L 15 8.441406 L 15 17.722656 C 15 17.960938 15.105469 18.191406 15.28125 18.34375 L 24.230469 26 Z M 25.769531 14.652344 L 25.769531 26 L 34.71875 18.34375 C 34.894531 18.191406 35 17.960938 35 17.722656 L 35 8.511719 Z M 17.058594 30.507812 L 12.269531 25.394531 C 10.4375 23.5625 9.03125 24.757812 8.757812 25.050781 C 7.855469 25.992188 7.851562 27.464844 8.738281 28.394531 L 13.535156 33.492188 C 13.855469 33.824219 13.855469 34.367188 13.535156 34.703125 C 13.378906 34.871094 13.167969 34.953125 12.960938 34.953125 C 12.75 34.953125 12.539062 34.871094 12.382812 34.703125 L 7.988281 30.011719 C 5 27 7 24 8 24 L 8 15 C 8 13 6.605469 12 5 12 C 3.394531 12 2 13 2 15 L 2 27 C 2 30 2.933594 30.839844 4 32 C 4 32 9.96875 39.660156 11 41 L 11 47.144531 C 11 48 11.800781 48 12 48 C 12.816406 48 20 48 20 48 C 21 48 21 47.433594 21 47 L 21 39 C 21 35.320312 19.171875 32.628906 17.058594 30.507812 Z M 32.941406 30.507812 L 37.730469 25.394531 C 39.5625 23.5625 40.96875 24.757812 41.242188 25.050781 C 42.144531 25.992188 42.148438 27.464844 41.261719 28.394531 L 36.464844 33.492188 C 36.144531 33.824219 36.144531 34.367188 36.464844 34.703125 C 36.621094 34.871094 36.832031 34.953125 37.039062 34.953125 C 37.25 34.953125 37.460938 34.871094 37.617188 34.703125 L 42.011719 30.011719 C 45 27 43 24 42 24 L 42 15 C 42 13 43.394531 12 45 12 C 46.605469 12 48 13 48 15 L 48 27 C 48 30 47.066406 30.839844 46 32 C 46 32 40.03125 39.660156 39 41 L 39 47.144531 C 39 48 38.199219 48 38 48 C 37.183594 48 30 48 30 48 C 29 48 29 47.433594 29 47 L 29 39 C 29 35.320312 30.828125 32.628906 32.941406 30.507812 Z M 32.941406 30.507812 "/>
  </g>
</svg>
