<?xml version="1.0" encoding="UTF-8" standalone="yes"?>
<svg xmlns="http://www.w3.org/2000/svg" xmlns:xlink="http://www.w3.org/1999/xlink" width="24px" height="24px" viewBox="0 0 24 24" version="1.1" fill="#000000">
  <g id="surface288772">
    <path style=" stroke:none;fill-rule:nonzero;fill:#fff;fill-opacity:1;" d="M 23 5 L 13.617188 5 L 12.617188 3.003906 C 12.617188 3 12.617188 3 12.613281 3 L 1 3 L 1 21 L 5 21 L 5 19 L 7 19 L 7 21 L 17 21 L 17 19 L 19 19 L 19 21 L 23 21 Z M 10.535156 8.464844 C 12.796875 7.019531 14.980469 9.203125 13.535156 11.464844 C 13.519531 11.492188 13.492188 11.519531 13.464844 11.535156 C 11.203125 12.980469 9.019531 10.796875 10.464844 8.535156 C 10.480469 8.507812 10.507812 8.480469 10.535156 8.464844 Z M 16 16 L 8 16 C 8 15.84375 8 15.375 8 15.21875 C 8 13.910156 9.816406 13 12 13 C 14.183594 13 16 13.910156 16 15.21875 C 16 15.375 16 15.84375 16 16 Z M 16 16 "/>
  </g>
</svg>
