<?xml version="1.0" encoding="UTF-8" standalone="yes"?>
<svg xmlns="http://www.w3.org/2000/svg" xmlns:xlink="http://www.w3.org/1999/xlink" width="24px" height="24px" viewBox="0 0 24 24" version="1.1" fill="#000000">
  <g id="surface288786">
    <path style=" stroke:none;fill-rule:nonzero;fill:#fff;fill-opacity:1;" d="M 9 0 C 4.027344 0 0 4.027344 0 9 C 0 13.972656 4.027344 18 9 18 C 13.972656 18 18 13.972656 18 9 C 18 4.027344 13.972656 0 9 0 Z M 9 1.75 C 10.390625 1.75 11.035156 2.097656 11.035156 3.191406 C 11.035156 4.289062 9.425781 5.320312 9 5.320312 C 8.574219 5.320312 6.960938 4.289062 6.960938 3.191406 C 6.960938 2.097656 7.609375 1.75 9 1.75 Z M 2.992188 9.300781 C 1.949219 8.960938 1.820312 8.238281 2.246094 6.917969 C 2.675781 5.59375 3.203125 5.085938 4.246094 5.421875 C 5.285156 5.757812 5.773438 7.609375 5.640625 8.015625 C 5.511719 8.421875 4.035156 9.636719 2.992188 9.300781 Z M 7.34375 14.867188 C 6.742188 15.785156 6.011719 15.722656 4.847656 14.964844 C 3.6875 14.207031 3.332031 13.5625 3.929688 12.644531 C 4.527344 11.726562 6.4375 11.742188 6.796875 11.976562 C 7.152344 12.210938 7.941406 13.957031 7.34375 14.867188 Z M 9 10.351562 C 8.253906 10.351562 7.648438 9.746094 7.648438 9 C 7.648438 8.253906 8.253906 7.648438 9 7.648438 C 9.746094 7.648438 10.351562 8.253906 10.351562 9 C 10.351562 9.746094 9.746094 10.351562 9 10.351562 Z M 13.230469 14.84375 C 12.097656 15.648438 11.371094 15.742188 10.738281 14.847656 C 10.101562 13.957031 10.820312 12.183594 11.164062 11.9375 C 11.511719 11.6875 13.425781 11.597656 14.058594 12.484375 C 14.691406 13.382812 14.363281 14.039062 13.230469 14.84375 Z M 15.003906 9.300781 C 13.964844 9.636719 12.484375 8.421875 12.355469 8.015625 C 12.222656 7.609375 12.710938 5.757812 13.75 5.421875 C 14.792969 5.085938 15.320312 5.59375 15.75 6.917969 C 16.175781 8.238281 16.046875 8.960938 15.003906 9.300781 Z M 15.003906 9.300781 "/>
    <path style=" stroke:none;fill-rule:nonzero;fill:#fff;fill-opacity:1;" d="M 21 19.488281 C 21 17.988281 21.617188 17.074219 22.335938 16.011719 C 23.113281 14.851562 24 13.542969 24 11.460938 C 24 8.210938 20.390625 5.292969 17.269531 3.378906 C 17.980469 4.421875 18.496094 5.609375 18.769531 6.882812 C 20.578125 8.316406 22 9.9375 22 11.460938 C 22 14.8125 19 15.703125 19 19.488281 C 19 22.691406 22.535156 23.898438 22.6875 23.949219 L 23.316406 22.050781 C 23.289062 22.042969 21 21.234375 21 19.488281 Z M 21 19.488281 "/>
  </g>
</svg>
