<?xml version="1.0" encoding="UTF-8" standalone="no"?>
<!DOCTYPE svg PUBLIC "-//W3C//DTD SVG 1.1//EN" "http://www.w3.org/Graphics/SVG/1.1/DTD/svg11.dtd">
<svg width="100%" height="100%" viewBox="0 0 210 210" version="1.1" xmlns="http://www.w3.org/2000/svg" xmlns:xlink="http://www.w3.org/1999/xlink" xml:space="preserve" xmlns:serif="http://www.serif.com/" style="fill-rule:evenodd;clip-rule:evenodd;stroke-linejoin:round;stroke-miterlimit:1.41421;">
    <g id="Artboard1" transform="matrix(1.00759,0,0,1.00564,0,0)">
        <rect x="0" y="0" width="208.333" height="208.333" style="fill:none;"/>
        <g transform="matrix(1.59075,0,0,1.59415,-81.7274,-57.9483)">
            <g transform="matrix(1.18879,0,0,1.18879,-15.4398,-11.8582)">
                <path d="M115.36,66.767L100.417,92.315L71.667,92.315L56.758,66.667L71.508,40.824L100.479,40.824L115.36,66.767ZM75.317,47.383L64.329,66.637L75.442,85.756L96.653,85.756L107.779,66.735L96.679,47.383L75.317,47.383Z" style="fill:rgb(239,77,56);"/>
            </g>
            <g transform="matrix(1.18879,0,0,1.18879,-15.4398,56.8839)">
                <path d="M115.36,66.767L100.417,92.315L71.667,92.315L56.758,66.667L71.508,40.824L100.479,40.824L115.36,66.767ZM75.317,47.383L64.329,66.637L75.442,85.756L96.653,85.756L107.779,66.735L96.679,47.383L75.317,47.383Z" style="fill:rgb(4,191,242);"/>
            </g>
            <g transform="matrix(1.18879,0,0,1.18879,44.8741,23.8297)">
                <path d="M115.36,66.767L100.417,92.315L71.667,92.315L56.758,66.667L71.508,40.824L100.479,40.824L115.36,66.767ZM75.317,47.383L64.329,66.637L75.442,85.756L96.653,85.756L107.779,66.735L96.679,47.383L75.317,47.383Z" style="fill:rgb(216,229,124);"/>
            </g>
        </g>
    </g>
</svg>
